<?xml version="1.0" encoding="UTF-8"?>
<svg xmlns="http://www.w3.org/2000/svg" xmlns:xlink="http://www.w3.org/1999/xlink" width="3720" height="2592" viewBox="0 0 3720 2592">
<path fill-rule="nonzero" fill="rgb(99.609375%, 99.609375%, 99.609375%)" fill-opacity="1" d="M 0 0 L 0 2592 C 1240 2592 2480 2592 3720 2592 C 3720 1728 3720 864 3720 0 L 0 0 "/>
<path fill-rule="nonzero" fill="rgb(0%, 0%, 0%)" fill-opacity="1" d="M 2212.910156 1104.75 C 2214.320312 1112.660156 2215.648438 1120.609375 2216.890625 1128.578125 C 2196.058594 1137.019531 2175.539062 1146.109375 2155.359375 1155.808594 C 2151.988281 1157.421875 2148.660156 1159.039062 2145.328125 1160.679688 C 2143.140625 1144.359375 2140.550781 1128.128906 2137.570312 1112.039062 C 1772.570312 1252.980469 1497.808594 1588.789062 1454.660156 2004.65625 C 1448.121094 2067.757812 1447.171875 2130.152344 1451.421875 2191.34375 C 1476.929688 2201.960938 1503.011719 2211.5625 1529.609375 2220.097656 C 1522.558594 2152.355469 1522.371094 2082.875 1529.679688 2012.4375 C 1570.488281 1619.066406 1834.160156 1302.730469 2182.308594 1175.808594 C 2182.261719 1175.769531 2182.21875 1175.738281 2182.171875 1175.710938 L 2182.179688 1175.710938 C 2182.230469 1175.738281 2182.269531 1175.769531 2182.308594 1175.808594 C 2212.46875 1164.808594 2243.25 1155.238281 2274.578125 1147.160156 C 2261.398438 1138.789062 2248.421875 1130.128906 2235.660156 1121.179688 C 2227.988281 1115.808594 2220.410156 1110.320312 2212.921875 1104.75 Z M 2212.910156 1104.75 "/>
<path fill-rule="nonzero" fill="rgb(0%, 0%, 0%)" fill-opacity="1" d="M 2274.601562 1147.160156 C 2243.25 1155.238281 2212.46875 1164.808594 2182.308594 1175.808594 C 2196.878906 1186.28125 2211.71875 1196.398438 2226.839844 1206.148438 C 2364.398438 1294.929688 2524.371094 1353.519531 2698.359375 1371.570312 C 2742.609375 1376.160156 2786.5 1378 2829.871094 1377.230469 C 2830.109375 1375.269531 2830.308594 1373.308594 2830.519531 1371.339844 C 2832.941406 1348.011719 2834.539062 1324.769531 2835.339844 1301.679688 C 2792.730469 1302.71875 2749.621094 1301.070312 2706.140625 1296.558594 C 2677.820312 1293.621094 2649.890625 1289.53125 2622.410156 1284.328125 C 2597.070312 1279.539062 2572.121094 1273.808594 2547.558594 1267.191406 C 2465.769531 1245.109375 2388.5 1213.070312 2316.960938 1172.558594 C 2302.609375 1164.429688 2288.480469 1155.960938 2274.601562 1147.160156 Z M 2274.601562 1147.160156 "/>
<path fill-rule="nonzero" fill="rgb(0%, 0%, 0%)" fill-opacity="1" d="M 2905.53125 1379.121094 C 2844.25 1969.796875 2315.738281 2398.949219 1725.070312 2337.671875 C 1134.410156 2276.390625 705.253906 1747.882812 766.53125 1157.210938 C 827.8125 566.550781 1356.320312 137.390625 1946.988281 198.671875 C 2537.660156 259.949219 2966.808594 788.460938 2905.53125 1379.121094 M 2830.519531 1371.339844 C 2887.5 822.109375 2488.449219 330.671875 1939.199219 273.691406 C 1389.960938 216.710938 898.527344 615.761719 841.546875 1165 C 784.5625 1714.234375 1183.621094 2205.675781 1732.859375 2262.65625 C 2282.101562 2319.640625 2773.539062 1920.582031 2830.519531 1371.339844 Z M 2830.519531 1371.339844 "/>
<path fill-rule="nonzero" fill="rgb(0%, 0%, 0%)" fill-opacity="1" d="M 1572.289062 303.488281 C 1533.589844 314.070312 1495.75 326.949219 1458.949219 341.96875 C 1826.449219 459.121094 2094.28125 780.089844 2145.328125 1160.679688 C 2168.738281 1149.140625 2192.609375 1138.429688 2216.890625 1128.578125 C 2159.71875 760.648438 1913.820312 447.421875 1572.289062 303.488281 Z M 1572.289062 303.488281 "/>
<path fill-rule="nonzero" fill="rgb(0%, 0%, 0%)" fill-opacity="1" d="M 2032.269531 816 C 1544.078125 874.019531 1143.550781 1263.359375 1090.679688 1772.882812 C 1085.21875 1825.523438 1083.660156 1877.671875 1085.75 1929.039062 C 1111.640625 1958.4375 1139.25 1986.339844 1168.449219 2012.570312 C 1158.730469 1937.203125 1157.519531 1859.53125 1165.691406 1780.664062 C 1215.808594 1297.621094 1601.96875 930.738281 2067.949219 888.089844 C 2057.019531 863.550781 2045.109375 839.5 2032.28125 816 Z M 2032.269531 816 "/>
<path fill-rule="nonzero" fill="rgb(0%, 0%, 0%)" fill-opacity="1" d="M 1761.308594 499.828125 C 1302.261719 560.070312 923.273438 913.460938 842.582031 1382.800781 C 852.460938 1469.121094 873.476562 1552.539062 904.285156 1631.378906 C 900.734375 1576.109375 901.742188 1519.800781 907.648438 1462.871094 C 958.878906 969.050781 1361.320312 596.628906 1841.21875 567.929688 C 1815.839844 543.890625 1789.171875 521.148438 1761.308594 499.828125 Z M 1761.308594 499.828125 "/>
<path fill-rule="nonzero" fill="rgb(0%, 0%, 0%)" fill-opacity="1" d="M 1939.199219 273.691406 C 1890.308594 268.609375 1841.878906 267.160156 1794.160156 269.089844 C 2244.390625 382.800781 2561.648438 796.941406 2547.558594 1267.191406 C 2572.121094 1273.808594 2597.070312 1279.539062 2622.398438 1284.328125 C 2640.730469 865.648438 2414.5 486.371094 2063.96875 294.570312 C 2063.890625 294.550781 2063.808594 294.53125 2063.730469 294.511719 C 2023.21875 285.089844 1981.660156 278.089844 1939.199219 273.691406 Z M 1939.199219 273.691406 "/>
<path fill-rule="nonzero" fill="rgb(0%, 0%, 0%)" fill-opacity="1" d="M 1860.601562 1367.730469 C 1841.640625 1384.53125 1823.328125 1402.050781 1805.691406 1420.25 C 1979.21875 1649.753906 2243.851562 1809.453125 2552.609375 1841.484375 C 2585.71875 1844.917969 2618.648438 1846.8125 2651.308594 1847.222656 C 2668.75 1822.734375 2685.121094 1797.394531 2700.339844 1771.265625 L 2700.328125 1771.265625 L 2700.308594 1771.261719 C 2654.25 1772.894531 2607.53125 1771.363281 2560.390625 1766.472656 C 2270.140625 1736.359375 2021.820312 1584.910156 1860.601562 1367.730469 Z M 1860.601562 1367.730469 "/>
<path fill-rule="nonzero" fill="rgb(0%, 0%, 0%)" fill-opacity="1" d="M 1611.230469 1707.265625 C 1599.160156 1734.277344 1588.230469 1761.960938 1578.519531 1790.261719 C 1733.140625 1991.8125 1958.449219 2138.542969 2222.128906 2190.640625 C 2262.890625 2173.539062 2302.359375 2153.792969 2340.289062 2131.597656 L 2340.28125 2131.597656 C 2336.371094 2131.234375 2332.488281 2130.855469 2328.609375 2130.453125 C 2027.589844 2099.222656 1771.679688 1937.492188 1611.238281 1707.265625 Z M 1611.230469 1707.265625 "/>
</svg>
