<svg width="353" height="39" viewBox="0 0 353 39" fill="none" xmlns="http://www.w3.org/2000/svg">
<path d="M284.908 22.2822L286.939 28.6034H293.502L288.191 32.5098L290.219 38.8344L284.908 34.9246L279.597 38.8344L281.625 32.5098L276.313 28.6034H282.88L284.908 22.2822Z" fill="#1A2240"/>
<path d="M17.7236 5.27109L14.6678 4.46895V0.381836H26.6235V4.54534L24.1025 5.27109L17.227 27.12H9.39654L2.52102 5.27109L0 4.54534V0.381836H12.0704V4.46895L9.01457 5.27109L13.3691 20.6646L17.7236 5.27109Z" fill="#1A2240"/>
<path d="M25.9106 16.8383C25.9106 9.10333 28.4317 6.32129 35.4281 6.32129C42.431 6.32129 44.9456 9.10333 44.9456 16.8383V16.8956C44.9456 24.6305 42.4246 27.4126 35.4281 27.4126C28.4253 27.4126 25.9106 24.6305 25.9106 16.8956V16.8383ZM39.789 16.8383C39.789 13.0313 39.4962 10.453 35.4281 10.453C31.3601 10.453 31.0673 13.0313 31.0673 16.8383V16.8956C31.0673 20.7026 31.3601 23.2809 35.4281 23.2809C39.4962 23.2809 39.789 20.7026 39.789 16.8956V16.8383Z" fill="#1A2240"/>
<path d="M53.5078 23.1605H58.8109L59.4857 20.6713H62.8852V27.114H46.4795V23.9245L48.5294 23.3706V10.3644L46.4795 9.81057V6.62109H55.8506V9.75327L53.5078 10.3708V23.1605Z" fill="#1A2240"/>
<path d="M71.6845 23.1605H76.9876L77.6624 20.6713H81.062V27.114H64.6626V23.9245L66.7125 23.3706V10.3644L64.6626 9.81057V6.62109H74.0337V9.75327L71.6909 10.3708V23.1605H71.6845Z" fill="#1A2240"/>
<path d="M89.8594 23.1605H96.2129L96.8877 20.6713H100.287V27.114H82.8311V23.9245L84.881 23.3706V10.3644L82.8311 9.81057V6.62109H100.287V13.0637H96.8877L96.2129 10.5745H89.8594V14.9417H92.8769L93.2589 13.5348H95.9518V19.831H93.2589L92.8769 18.4559H89.8594V23.1605Z" fill="#1A2240"/>
<path d="M114.585 10.364L112.446 9.74644V6.61426H121.906V9.80373L119.856 10.3576L114.324 19.4677V23.3638L116.667 23.9813V27.1135H107.003V23.9813L109.346 23.3638V19.4677L103.807 10.3576L101.757 9.80373V6.61426H111.218V9.74644L109.078 10.364L111.829 15.5206L114.585 10.364Z" fill="#1A2240"/>
<path d="M134.996 6.61426C139.624 6.61426 141.203 9.01432 141.203 12.3566V12.4139C141.203 14.0818 140.382 15.2532 138.86 16.1636C140.91 17.074 142.081 18.7419 142.081 20.9064V20.9637C142.081 25.0636 139.739 27.1135 134.76 27.1135H123.511V23.924L125.561 23.3701V10.364L123.511 9.8101V6.62062H134.996V6.61426ZM133.825 10.5677H130.571V14.7567H133.5C135.785 14.7567 136.135 13.6171 136.135 12.6176C136.142 11.7136 136.021 10.5677 133.825 10.5677ZM133.385 18.1817H130.571V23.1601H133.589C136.517 23.1601 137.014 22.3961 137.014 20.7027C137.014 19.0093 136.314 18.1817 133.385 18.1817Z" fill="#1A2240"/>
<path d="M150.212 23.3706L152.555 23.9881V27.1203H143.387V23.9308L145.323 23.377L150.594 6.62109H156.597L161.868 23.377L163.804 23.9308V27.1203H154.547V23.9881L156.89 23.3706L156.272 21.3525H150.823L150.212 23.3706ZM151.848 18.0994H155.247L153.548 11.5676L151.848 18.0994Z" fill="#1A2240"/>
<path d="M172.55 23.1605H177.853L178.528 20.6713H181.927V27.114H165.528V23.9245L167.578 23.3706V10.3644L165.528 9.81057V6.62109H174.899V9.75327L172.556 10.3708V23.1605H172.55Z" fill="#1A2240"/>
<path d="M190.726 23.1605H196.029L196.703 20.6713H200.103V27.114H183.704V23.9245L185.754 23.3706V10.3644L183.704 9.81057V6.62109H193.075V9.75327L190.732 10.3708V23.1605H190.726Z" fill="#1A2240"/>
<path d="M209.104 16.9977C209.104 20.3208 209.945 22.1543 214.108 22.1543C218.272 22.1543 219.112 20.3208 219.112 16.9977V5.27109L216.056 4.46895V0.381836H228.279V4.54534L225.606 5.27109V16.5011C225.606 24.4461 222.741 27.5019 214.108 27.5019C205.476 27.5019 202.611 24.4461 202.611 16.5011V5.27109L199.937 4.54534V0.381836H212.16V4.46895L209.104 5.27109V16.9977Z" fill="#1A2240"/>
<path d="M236.614 7.90685C236.614 10.0077 238.18 10.2751 242.153 10.848C249.296 11.9176 252.504 12.8725 252.504 19.0223C252.504 25.0192 247.921 27.5021 240.434 27.5021C236.461 27.5021 232.947 27.0055 230.159 25.6304V18.1055H234.551L235.583 21.6579C236.958 22.0399 238.448 22.2308 240.243 22.2308C244.215 22.2308 245.858 21.4669 245.858 19.3278C245.858 17.1124 244.139 16.8832 239.67 16.1957C232.603 15.0879 229.968 13.5219 229.968 7.75406C229.968 2.44463 234.666 0 241.847 0C245.17 0 248.264 0.420171 251.244 1.90987V9.39654H246.851L245.82 5.92058C244.941 5.61501 243.49 5.27123 242.038 5.27123C237.913 5.27123 236.614 5.92058 236.614 7.90685Z" fill="#1A2240"/>
<path d="M262.989 22.2307L266.045 23.0328V27.12H254.089V22.9564L256.61 22.2307L263.485 0.381836H271.316L278.191 22.2307L280.712 22.9564V27.12H268.642V23.0328L271.698 22.2307L270.896 19.5951H263.791L262.989 22.2307ZM265.128 15.3552H269.559L267.343 6.83718L265.128 15.3552Z" fill="#1A2240"/>
<path d="M298.448 27.4063C291.312 27.4063 288.937 24.6816 288.937 17.1249V17.0676C288.937 9.50451 291.312 6.78613 298.448 6.78613C301.109 6.78613 303.662 7.09808 305.897 8.21853V13.8335H302.605L301.835 11.2298C301.007 11.0006 300.033 10.8287 298.652 10.8287C294.387 10.8287 293.985 13.3497 293.985 17.0739V17.1312C293.985 20.8555 294.387 23.3765 298.652 23.3765C300.027 23.3765 301.001 23.2046 301.835 23.0009L302.605 20.3653H305.897V25.9803C303.662 27.088 301.109 27.4063 298.448 27.4063Z" fill="#1A2240"/>
<path d="M307.846 17.0607C307.846 9.49767 310.309 6.7793 317.153 6.7793C323.997 6.7793 326.461 9.49767 326.461 17.0607V17.118C326.461 24.6811 323.997 27.3995 317.153 27.3995C310.309 27.3995 307.846 24.6747 307.846 17.118V17.0607ZM321.425 17.0607C321.425 13.3365 321.138 10.8155 317.153 10.8155C313.168 10.8155 312.881 13.3365 312.881 17.0607V17.118C312.881 20.8423 313.168 23.3633 317.153 23.3633C321.138 23.3633 321.425 20.8423 321.425 17.118V17.0607Z" fill="#1A2240"/>
<path d="M340.326 16.4629L343.903 7.06641H352.727V10.1922L350.722 10.7334V23.4531L352.727 23.9942V27.12H343.502V24.0578L345.794 23.4531L346.049 13.1716L342.127 23.3958H338.518L334.621 13.1716L334.882 23.4531L337.142 24.0578V27.12H327.975V23.9942L329.98 23.4531V10.7334L327.975 10.1922V7.06641H336.799L340.326 16.4629Z" fill="#1A2240"/>
</svg>
